<svg xmlns="http://www.w3.org/2000/svg" xmlns:xlink="http://www.w3.org/1999/xlink" width="140.526" height="140.526" viewBox="0 0 140.526 140.526"><defs><style>.a{fill:none;}.b{fill:#0c3c60;}.c{fill:#c90000;}.d{clip-path:url(#a);}</style><clipPath id="a"><path class="a" d="M0,9.807H140.526V-130.718H0Z" transform="translate(0 130.718)"/></clipPath></defs><g transform="translate(20.957 55.041)"><path class="b" d="M.487,1.728l14.9-14.9v-9.864L-6.488-1.162V23.944H.487Z" transform="translate(6.488 23.032)"/></g><g transform="translate(55.363 27.653)"><path class="b" d="M3.995,3.644V25.86H10.97V.754L-38.351-48.567l-14.9,14.9v9.864l14.9-14.9Z" transform="translate(53.247 48.567)"/></g><g transform="translate(87.944 59.148)"><path class="c" d="M0,3.678H52.561V-3.3H6.975V-42.043L0-49.019Z" transform="translate(0 49.019)"/></g><g transform="translate(0.012)"><path class="c" d="M4.9,0l-24.66,24.661V104.87H-65.344v6.975h52.561V27.55L4.9,9.864,22.588,27.55V41.393l6.975,6.975V24.661Z" transform="translate(65.344)"/></g><path class="c" d="M108.718-2.3h23.641V-5.618H108.718Z" transform="translate(8.157 140.104)"/><path class="c" d="M0-2.119H23.644V-5.772H0Z" transform="translate(0 140.093)"/><g class="d" transform="translate(0 0.001)"><g transform="translate(27.121 131.132)"><path class="b" d="M.337.656A5.51,5.51,0,0,0,3.526-.085c.105-.08.159-.146.159-.2a.331.331,0,0,0-.054-.158l-.516-.887c-.061-.1-.124-.145-.185-.145a.525.525,0,0,0-.225.078A4.2,4.2,0,0,1,.614-.918,2.913,2.913,0,0,1-1.535-1.7a3.16,3.16,0,0,1-.788-2.341,3.252,3.252,0,0,1,.755-2.335A2.794,2.794,0,0,1,.549-7.163a4,4,0,0,1,2,.476.53.53,0,0,0,.225.08c.062,0,.124-.048.186-.146l.462-.806a.406.406,0,0,0,.08-.226A.26.26,0,0,0,3.366-8a4.207,4.207,0,0,0-1.33-.549A7.4,7.4,0,0,0,.284-8.738a4.869,4.869,0,0,0-3.539,1.2A4.657,4.657,0,0,0-4.492-4.041,4.606,4.606,0,0,0-3.229-.555,4.946,4.946,0,0,0,.337.656m4.67-.2h1.6A.488.488,0,0,0,6.88.4.491.491,0,0,0,7.031.179l.6-1.561h3.214L11.45.179A.492.492,0,0,0,11.6.4a.482.482,0,0,0,.271.059h1.6c.159,0,.239-.074.239-.225a.672.672,0,0,0-.04-.212L10.247-8.142a.788.788,0,0,0-.2-.311.5.5,0,0,0-.317-.086H8.764a.525.525,0,0,0-.324.086.736.736,0,0,0-.205.311L4.809.02a.672.672,0,0,0-.04.212c0,.151.08.225.238.225M8.13-2.9,9.24-5.761l1.1,2.858ZM16.014.457h.992A.626.626,0,0,0,17.47.318a.6.6,0,0,0,.132-.43V-2.466h1.72q3.4,0,3.4-3.03t-3.4-3.042H16.014a.609.609,0,0,0-.456.145.608.608,0,0,0-.14.436V-.112a.581.581,0,0,0,.14.43.627.627,0,0,0,.456.139m1.6-4.524V-6.926h1.561q1.377,0,1.376,1.429t-1.376,1.43ZM24.745.457h.992A.626.626,0,0,0,26.2.318a.6.6,0,0,0,.132-.43V-7.958A.627.627,0,0,0,26.2-8.4a.626.626,0,0,0-.463-.139h-.992a.61.61,0,0,0-.456.145.613.613,0,0,0-.139.436V-.112a.586.586,0,0,0,.139.43.628.628,0,0,0,.456.139m6.351,0h.978a.651.651,0,0,0,.47-.139.586.586,0,0,0,.139-.43V-6.926h2.17a.6.6,0,0,0,.443-.132.6.6,0,0,0,.126-.424V-7.97a.621.621,0,0,0-.126-.436.6.6,0,0,0-.443-.132H28.318a.574.574,0,0,0-.436.132.644.644,0,0,0-.119.436v.489a.616.616,0,0,0,.119.43.588.588,0,0,0,.436.126h2.169V-.112a.586.586,0,0,0,.14.43.649.649,0,0,0,.47.139m4.087,0h1.6A.488.488,0,0,0,37.057.4a.491.491,0,0,0,.152-.218l.6-1.561h3.214l.61,1.561A.491.491,0,0,0,41.779.4a.482.482,0,0,0,.271.059h1.6c.159,0,.239-.074.239-.225A.672.672,0,0,0,43.85.02L40.424-8.142a.788.788,0,0,0-.2-.311.5.5,0,0,0-.317-.086h-.966a.525.525,0,0,0-.324.086.736.736,0,0,0-.205.311L34.986.02a.672.672,0,0,0-.04.212c0,.151.08.225.238.225M38.307-2.9l1.111-2.858,1.1,2.858ZM46.191.457h5.318a.591.591,0,0,0,.438-.126A.62.62,0,0,0,52.065-.1V-.575a.652.652,0,0,0-.118-.436.577.577,0,0,0-.438-.132h-3.73V-7.958a.627.627,0,0,0-.132-.443.626.626,0,0,0-.463-.139h-.992a.609.609,0,0,0-.456.145.608.608,0,0,0-.14.436V-.112a.581.581,0,0,0,.14.43.627.627,0,0,0,.456.139m13.269,0h5.319a.588.588,0,0,0,.436-.126A.615.615,0,0,0,65.335-.1V-.575a.646.646,0,0,0-.119-.436.574.574,0,0,0-.436-.132H61.048V-7.958a.627.627,0,0,0-.132-.443.626.626,0,0,0-.463-.139H59.46A.61.61,0,0,0,59-8.394a.613.613,0,0,0-.139.436V-.112A.586.586,0,0,0,59,.318a.628.628,0,0,0,.456.139m8.322,0h.979a.651.651,0,0,0,.47-.139.586.586,0,0,0,.139-.43V-6.926h2.169a.6.6,0,0,0,.444-.132.6.6,0,0,0,.125-.424V-7.97a.626.626,0,0,0-.125-.436.6.6,0,0,0-.444-.132H65a.574.574,0,0,0-.436.132.644.644,0,0,0-.119.436v.489a.616.616,0,0,0,.119.43A.588.588,0,0,0,65-6.926h2.169V-.112a.586.586,0,0,0,.139.43.653.653,0,0,0,.47.139m6.35,0h2.779a4.876,4.876,0,0,0,3.426-1.1,4.411,4.411,0,0,0,1.191-3.4A4.432,4.432,0,0,0,80.35-7.454a4.9,4.9,0,0,0-3.439-1.085H74.132a.609.609,0,0,0-.456.145.613.613,0,0,0-.139.436V-.112a.586.586,0,0,0,.139.43.627.627,0,0,0,.456.139m1.588-1.6V-6.926h1.3a2.247,2.247,0,0,1,1.76.648,3.353,3.353,0,0,1,.582,2.236A3.378,3.378,0,0,1,78.776-1.8a2.235,2.235,0,0,1-1.76.655Z" transform="translate(4.492 8.738)"/></g><g transform="translate(0 116.848)"><path class="b" d="M.042.642h.992A.626.626,0,0,0,1.5.5a.606.606,0,0,0,.132-.43V-3.05H4.355a.569.569,0,0,0,.436-.132.644.644,0,0,0,.119-.436v-.489a.618.618,0,0,0-.119-.43.593.593,0,0,0-.436-.126H1.629V-6.741h3.9a.574.574,0,0,0,.436-.132.644.644,0,0,0,.119-.436V-7.8a.621.621,0,0,0-.119-.43.6.6,0,0,0-.436-.125H.042a.613.613,0,0,0-.457.145.611.611,0,0,0-.139.436V.073A.587.587,0,0,0-.415.5.631.631,0,0,0,.042.642m8.07,0H13.43a.593.593,0,0,0,.436-.126.618.618,0,0,0,.119-.43V-.39a.644.644,0,0,0-.119-.436.574.574,0,0,0-.436-.132H9.7V-7.773a.625.625,0,0,0-.132-.443A.626.626,0,0,0,9.1-8.354H8.112a.613.613,0,0,0-.457.145.611.611,0,0,0-.139.436V.073A.587.587,0,0,0,7.655.5a.631.631,0,0,0,.457.139m7.091,0h1.6a.488.488,0,0,0,.272-.059.491.491,0,0,0,.152-.218l.6-1.562h3.214L21.645.364A.492.492,0,0,0,21.8.583a.482.482,0,0,0,.271.059h1.6c.159,0,.239-.075.239-.225a.667.667,0,0,0-.04-.212L20.442-7.957a.78.78,0,0,0-.2-.311.492.492,0,0,0-.317-.086H18.96a.518.518,0,0,0-.324.086.729.729,0,0,0-.205.311L15,.205a.667.667,0,0,0-.04.212c0,.149.08.225.238.225m3.123-3.361,1.111-2.857,1.1,2.857ZM25.614.642h.807A.651.651,0,0,0,26.891.5a.587.587,0,0,0,.139-.43v-5L28.79-.972a1.019,1.019,0,0,0,.258.39.682.682,0,0,0,.43.112.649.649,0,0,0,.43-.112,1.264,1.264,0,0,0,.258-.39l1.773-3.956v5a.587.587,0,0,0,.139.43.651.651,0,0,0,.47.139h.807A.627.627,0,0,0,33.81.5a.588.588,0,0,0,.14-.43V-7.785a.586.586,0,0,0-.14-.43.651.651,0,0,0-.47-.139h-.978a.927.927,0,0,0-.371.059.446.446,0,0,0-.212.231l-2.3,5.4-2.289-5.4a.442.442,0,0,0-.212-.231.927.927,0,0,0-.371-.059h-.978a.651.651,0,0,0-.47.139.586.586,0,0,0-.139.43V.073a.587.587,0,0,0,.139.43.628.628,0,0,0,.456.139M36.5.642H37.5A.624.624,0,0,0,37.958.5a.606.606,0,0,0,.132-.43V-7.773a.625.625,0,0,0-.132-.443.624.624,0,0,0-.462-.139H36.5a.611.611,0,0,0-.457.145.611.611,0,0,0-.139.436V.073a.587.587,0,0,0,.139.43A.63.63,0,0,0,36.5.642m4.141,0h.992A.624.624,0,0,0,42.1.5a.606.606,0,0,0,.132-.43V-4.862L45.948.35a.824.824,0,0,0,.245.232.708.708,0,0,0,.325.059h.833A.626.626,0,0,0,47.815.5a.606.606,0,0,0,.132-.43V-7.773a.625.625,0,0,0-.132-.443.626.626,0,0,0-.463-.139h-.992a.613.613,0,0,0-.457.145.611.611,0,0,0-.139.436v4.934l-3.7-5.226a.844.844,0,0,0-.244-.231.748.748,0,0,0-.338-.059h-.82a.651.651,0,0,0-.47.139.586.586,0,0,0-.139.43V.073a.587.587,0,0,0,.139.43.63.63,0,0,0,.457.139m13.825.2A6.217,6.217,0,0,0,57.855.02a.559.559,0,0,0,.212-.226.87.87,0,0,0,.053-.344V-3.909a.786.786,0,0,0-.152-.53.675.675,0,0,0-.522-.172h-2.8a.591.591,0,0,0-.436.126.6.6,0,0,0-.119.417v.476a.618.618,0,0,0,.119.43.591.591,0,0,0,.436.126h1.442V-1a2.5,2.5,0,0,1-.661.185,5.237,5.237,0,0,1-.833.067,2.69,2.69,0,0,1-2.051-.768,3.3,3.3,0,0,1-.728-2.341A3.18,3.18,0,0,1,52.59-6.2a2.915,2.915,0,0,1,2.156-.782,4.139,4.139,0,0,1,2.011.476.516.516,0,0,0,.212.08c.061,0,.124-.048.185-.145l.5-.847a.509.509,0,0,0,.066-.185.259.259,0,0,0-.145-.212,4.066,4.066,0,0,0-1.336-.549,7.726,7.726,0,0,0-1.773-.191,4.951,4.951,0,0,0-3.559,1.21,4.593,4.593,0,0,0-1.27,3.486A4.606,4.606,0,0,0,50.9-.37,4.951,4.951,0,0,0,54.469.841m9.7,0A4.53,4.53,0,0,0,67.586-.39,4.8,4.8,0,0,0,68.77-3.856a4.8,4.8,0,0,0-1.184-3.467,4.53,4.53,0,0,0-3.421-1.23,4.543,4.543,0,0,0-3.433,1.23,4.794,4.794,0,0,0-1.185,3.467A4.793,4.793,0,0,0,60.733-.39,4.544,4.544,0,0,0,64.166.841m0-1.575a2.181,2.181,0,0,1-1.832-.787,3.741,3.741,0,0,1-.615-2.335,3.741,3.741,0,0,1,.615-2.335,2.182,2.182,0,0,1,1.832-.788,2.167,2.167,0,0,1,1.819.788A3.74,3.74,0,0,1,66.6-3.856a3.74,3.74,0,0,1-.616,2.335,2.167,2.167,0,0,1-1.819.787M80.663.841A6.218,6.218,0,0,0,84.051.02a.567.567,0,0,0,.212-.226.89.89,0,0,0,.053-.344V-3.909a.78.78,0,0,0-.153-.53.672.672,0,0,0-.522-.172h-2.8a.593.593,0,0,0-.436.126.6.6,0,0,0-.119.417v.476a.618.618,0,0,0,.119.43.593.593,0,0,0,.436.126h1.443V-1a2.5,2.5,0,0,1-.662.185,5.227,5.227,0,0,1-.833.067,2.689,2.689,0,0,1-2.05-.768A3.293,3.293,0,0,1,78-3.856a3.18,3.18,0,0,1,.78-2.341,2.914,2.914,0,0,1,2.157-.782,4.134,4.134,0,0,1,2.01.476.516.516,0,0,0,.212.08c.062,0,.124-.048.185-.145l.5-.847a.518.518,0,0,0,.067-.185.261.261,0,0,0-.146-.212,4.056,4.056,0,0,0-1.336-.549,7.719,7.719,0,0,0-1.773-.191A4.948,4.948,0,0,0,77.1-7.343a4.589,4.589,0,0,0-1.271,3.486A4.6,4.6,0,0,0,77.1-.37,4.948,4.948,0,0,0,80.663.841M86,.642h1.6a.482.482,0,0,0,.271-.059.5.5,0,0,0,.153-.218L88.614-1.2h3.215L92.438.364a.491.491,0,0,0,.152.218.489.489,0,0,0,.272.059h1.6c.159,0,.238-.075.238-.225a.666.666,0,0,0-.04-.212L91.234-7.957a.769.769,0,0,0-.2-.311.49.49,0,0,0-.317-.086h-.965a.522.522,0,0,0-.325.086.739.739,0,0,0-.205.311L85.8.205a.667.667,0,0,0-.04.212c0,.149.08.225.239.225m3.122-3.361,1.112-2.857,1.1,2.857ZM97,.642h.992A.624.624,0,0,0,98.457.5a.606.606,0,0,0,.132-.43V-2.52h1.575L101.381.39A.376.376,0,0,0,101.54.6a.636.636,0,0,0,.277.046h1.468c.185,0,.278-.08.278-.239a.481.481,0,0,0-.04-.185l-1.389-3.042a2.524,2.524,0,0,0,1.177-1,3.027,3.027,0,0,0,.4-1.594q0-2.938-3.361-2.937H97a.611.611,0,0,0-.457.145.611.611,0,0,0-.139.436V.073a.587.587,0,0,0,.139.43A.63.63,0,0,0,97,.642m1.587-4.737V-6.741h1.575a1.477,1.477,0,0,1,1.032.317,1.311,1.311,0,0,1,.344,1.006,1.243,1.243,0,0,1-.377,1.005,1.722,1.722,0,0,1-1.131.317ZM106,.642h2.778a4.879,4.879,0,0,0,3.427-1.1,4.416,4.416,0,0,0,1.19-3.4,4.436,4.436,0,0,0-1.177-3.413,4.906,4.906,0,0,0-3.44-1.085H106a.611.611,0,0,0-.457.145.611.611,0,0,0-.139.436V.073a.587.587,0,0,0,.139.43A.63.63,0,0,0,106,.642m1.588-1.6V-6.741h1.3a2.244,2.244,0,0,1,1.759.648,3.35,3.35,0,0,1,.583,2.236,3.38,3.38,0,0,1-.583,2.243,2.232,2.232,0,0,1-1.759.655Zm8.1,1.6h5.477A.593.593,0,0,0,121.6.516a.618.618,0,0,0,.119-.43V-.39a.644.644,0,0,0-.119-.436.574.574,0,0,0-.436-.132H117.27v-2.1H120a.574.574,0,0,0,.436-.132.644.644,0,0,0,.119-.436v-.463a.619.619,0,0,0-.119-.43A.593.593,0,0,0,120-4.651H117.27v-2.09h3.9a.572.572,0,0,0,.436-.132.644.644,0,0,0,.119-.436V-7.8a.621.621,0,0,0-.119-.43.6.6,0,0,0-.436-.125h-5.49a.609.609,0,0,0-.456.145.607.607,0,0,0-.14.436V.073a.583.583,0,0,0,.14.43.627.627,0,0,0,.456.139m8.2,0h.992A.626.626,0,0,0,125.34.5a.606.606,0,0,0,.132-.43V-4.862L129.19.35a.824.824,0,0,0,.245.232.7.7,0,0,0,.324.059h.833A.626.626,0,0,0,131.055.5a.606.606,0,0,0,.132-.43V-7.773a.625.625,0,0,0-.132-.443.626.626,0,0,0-.463-.139H129.6a.611.611,0,0,0-.457.145.611.611,0,0,0-.139.436v4.934l-3.7-5.226a.832.832,0,0,0-.245-.231.744.744,0,0,0-.338-.059h-.82a.653.653,0,0,0-.47.139.586.586,0,0,0-.139.43V.073a.587.587,0,0,0,.139.43.631.631,0,0,0,.457.139m12.714.2a3.99,3.99,0,0,0,2.507-.682,2.212,2.212,0,0,0,.866-1.833,2.4,2.4,0,0,0-.3-1.257,2.482,2.482,0,0,0-.854-.827,10.512,10.512,0,0,0-1.521-.721l-.371-.145a9.473,9.473,0,0,1-.913-.39,1.327,1.327,0,0,1-.457-.371.907.907,0,0,1-.164-.562q0-1.032,1.429-1.032a3.491,3.491,0,0,1,1.958.53.387.387,0,0,0,.2.08c.061,0,.118-.044.172-.133l.542-.859a.37.37,0,0,0,.067-.186c0-.07-.067-.158-.2-.264a5.183,5.183,0,0,0-3.017-.741,3.983,3.983,0,0,0-2.407.668,2.24,2.24,0,0,0-.914,1.925,2.123,2.123,0,0,0,.377,1.277,2.959,2.959,0,0,0,.965.852A10.235,10.235,0,0,0,136-3.182q.727.279,1.078.45a1.528,1.528,0,0,1,.529.4.908.908,0,0,1,.178.583.859.859,0,0,1-.37.773,2.1,2.1,0,0,1-1.138.245A4.876,4.876,0,0,1,135-.906a4.833,4.833,0,0,1-1.124-.449.375.375,0,0,0-.2-.08c-.062,0-.119.044-.172.132l-.543.86a.364.364,0,0,0-.066.185c0,.08.066.168.2.264a4.524,4.524,0,0,0,1.529.616A8.791,8.791,0,0,0,136.6.841" transform="translate(0.554 8.553)"/></g></g></svg>