<svg xmlns="http://www.w3.org/2000/svg" xmlns:xlink="http://www.w3.org/1999/xlink" width="267.303" height="102.094" viewBox="0 0 267.303 102.094"><defs><style>.a{fill:url(#a);}.b,.c,.d,.e,.g,.h,.i,.j,.k,.l,.m,.n,.o,.p,.q,.r{fill-rule:evenodd;}.b{fill:url(#b);}.c{fill:url(#c);}.d{fill:url(#d);}.e{fill:url(#e);}.f{fill:url(#f);}.g{fill:url(#g);}.h{fill:#0c3c60;}.i{fill:#e8e9ea;}.j{fill:#e0e1e3;}.k{fill:#f0f1f1;}.l{fill:#fff;}.m{fill:#f3f4f4;}.n{fill:#f6f6f7;}.o{fill:#fafafa;}.p{fill:url(#h);}.q{fill:url(#i);}.r{fill:url(#j);}</style><linearGradient id="a" x1="0.948" y1="-0.31" x2="0.054" y2="1.322" gradientUnits="objectBoundingBox"><stop offset="0" stop-color="#fff"/><stop offset="0.263" stop-color="#fafafb"/><stop offset="0.535" stop-color="#eeeeef"/><stop offset="0.81" stop-color="#d9dbdc"/><stop offset="1" stop-color="#c7c9cb"/></linearGradient><linearGradient id="b" x1="0.771" y1="-0.105" x2="0.216" y2="1.054" gradientUnits="objectBoundingBox"><stop offset="0" stop-color="#e82717"/><stop offset="0.283" stop-color="#e52516"/><stop offset="0.474" stop-color="#dc2215"/><stop offset="0.639" stop-color="#cd1b13"/><stop offset="0.789" stop-color="#b71210"/><stop offset="0.927" stop-color="#9b070d"/><stop offset="1" stop-color="#8a000b"/></linearGradient><linearGradient id="c" x1="0.781" y1="-0.1" x2="0.203" y2="1.041" gradientUnits="objectBoundingBox"><stop offset="0" stop-color="#bb0015"/><stop offset="0.533" stop-color="#bd0015"/><stop offset="0.894" stop-color="#c60016"/><stop offset="1" stop-color="#cb0017"/></linearGradient><linearGradient id="d" x1="0.777" y1="-0.097" x2="0.213" y2="0.99" gradientUnits="objectBoundingBox"><stop offset="0" stop-color="#be0000"/><stop offset="0.285" stop-color="#d10606"/><stop offset="0.478" stop-color="#be0000"/><stop offset="0.644" stop-color="#be0000"/><stop offset="0.795" stop-color="#be0000"/><stop offset="0.934" stop-color="#be0000"/><stop offset="1" stop-color="#be0000"/></linearGradient><linearGradient id="e" x1="1.377" y1="-0.935" x2="0.176" y2="0.729" gradientUnits="objectBoundingBox"><stop offset="0" stop-color="#be0000"/><stop offset="1" stop-color="#700000"/></linearGradient><linearGradient id="f" x1="0.944" y1="-0.142" x2="0.074" y2="1.228" gradientUnits="objectBoundingBox"><stop offset="0" stop-color="#c7c9cb"/><stop offset="0.19" stop-color="#d9dbdc"/><stop offset="0.465" stop-color="#eeeeef"/><stop offset="0.737" stop-color="#fafafb"/><stop offset="1" stop-color="#fff"/></linearGradient><linearGradient id="g" x1="0.885" y1="-0.311" x2="0.118" y2="1.33" gradientUnits="objectBoundingBox"><stop offset="0" stop-color="#7c0007"/><stop offset="1" stop-color="#e82717"/></linearGradient><linearGradient id="h" x1="1.029" y1="0.186" x2="-0.039" y2="0.813" gradientUnits="objectBoundingBox"><stop offset="0" stop-color="#fff"/><stop offset="0.165" stop-color="#f9f9f9"/><stop offset="0.381" stop-color="#e8e9ea"/><stop offset="0.625" stop-color="#cdcfd0"/><stop offset="0.888" stop-color="#a8aaad"/><stop offset="1" stop-color="#96999c"/></linearGradient><linearGradient id="i" x1="1.136" y1="0.18" x2="-0.045" y2="0.766" gradientUnits="objectBoundingBox"><stop offset="0" stop-color="#0c3c60"/><stop offset="0.39" stop-color="#2471ab"/><stop offset="1" stop-color="#0c3c60"/></linearGradient><linearGradient id="j" x1="1.051" y1="0.223" x2="-0.053" y2="0.786" gradientUnits="objectBoundingBox"><stop offset="0" stop-color="#faae96"/><stop offset="0.45" stop-color="#e60c19"/><stop offset="1" stop-color="#94000e"/></linearGradient></defs><g transform="translate(8.872) rotate(8)"><path class="a" d="M138.157,4.949V2.605C80.206-5.419,78.667,4.233,45.438,16.149c-3.135,1.124-6.5,2-10.014,3.239-4.252,1.505-3.542,1.642-6.933,2.806C25.516,24.5,13.55,35.325,7.676,39.269,4.812,41.193,2.163,42.975,0,44.456c.684-.11,1.6-.3,2.766-.586,2.91-.715,5.8-1.591,8.682-2.509,4.146-1.321,8.268-2.79,12.374-4.329,4.272-1.6,8.525-3.293,12.781-4.972C55.58,24.572,79.618,14.608,95.438,10.112c11.015-3.13,22.14-5.362,33.045-5.634q2.625-.066,5.041.053C135.07,4.605,136.619,4.738,138.157,4.949Z" transform="translate(123.934 11.089)"/><path class="b" d="M146.289,1.933c-4.119.2-20.941,1.964-42.686,9.962C74.077,22.756,43.521,40.886,12.725,49.5a36.265,36.265,0,0,1-6.371,1.393c-2.972.134-5.349.089-6.086-1.87C.183,48.8.1,48.51,0,48.207c.07-1.527,1.586-3.314,2.221-4.168a17.115,17.115,0,0,1,4.871-4.007,36.209,36.209,0,0,0,6.371-1.393c4.046-1.132,8.089-2.429,12.124-3.852q5.943-2.08,13.359-5C58.417,22.12,86.7,10.155,104.143,5.4,121.635.636,135.865-.8,146.289.4Z" transform="translate(115.802 15.323)"/><path class="c" d="M132.159,1.511A184.848,184.848,0,0,0,103.6,9.533C74.077,20.393,43.521,38.523,12.725,47.138a36.265,36.265,0,0,1-6.371,1.393c-2.972.134-5.349.089-6.086-1.87C.183,46.438.1,46.148,0,45.844c.07-1.527,1.586-3.314,2.221-4.168a17.115,17.115,0,0,1,4.871-4.007,36.2,36.2,0,0,0,6.371-1.393c4.046-1.132,8.089-2.429,12.124-3.852q5.943-2.08,13.359-5C58.417,19.757,86.7,7.792,104.143,3.039q6.781-1.847,12.9-3.039C122.353.3,127.416.807,132.159,1.511Z" transform="translate(115.802 17.686)"/><path class="d" d="M114.645,6.045C96.355,2.292,74.723,3.135,56.092,8.3,41.547,12.324,29.451,17.64,12.957,23.479,8.388,25.1,3.33,27.4,0,28.6c.734-.562,2.9.121,3.159-.088a3.18,3.18,0,0,0,.822-4.433l-2-4.29q1.353-.4,2.765-.827C45.172,6.651,75.163-7.353,114.645,4.471Z" transform="translate(147.446 7.966)"/><path class="e" d="M49.938,0C36.465,4.431,26.577,8.557,11.082,14.4c-1.28.483-5.826,1.959-7.869,2.766-.645.254.872-.178.338.138-2,1.186-1.692,2.231-3.551,2.944.707-.577,1.595-1.307,1.841-1.52a3.4,3.4,0,0,0,.791-4.548L.709,9.782q1.3-.407,2.661-.849,1.4-.454,2.78-.911Q12.176,6.3,18.722,4.83C31.094,2.066,38.017.764,49.938,0Z" transform="translate(148.692 17.708)"/><path class="f" d="M102.9,19.376l-.958-2.219c-.508-1.041-.2-2.154.711-3.5a18.091,18.091,0,0,1,2.867-3.39A56.1,56.1,0,0,1,111.2,5.25c1.9-1.432,4.854-3.869,6.793-5.25l-4.077,1.664C107.792,4.231,101.107,7.5,95,10.234,88.16,13.3,82,15.789,74.932,18.792,60.909,24.754,45.542,31.461,35.9,34.546,23.984,38.356,8.6,39.1,0,37.565v2c6.333,2.538,12.832,3.394,19.47,3.643,7.22.271,16.218-1.047,23.455-2.656,13.9-3.093,25.6-7.7,37.829-12.641C88.07,24.953,95.612,22.177,102.9,19.376Z" transform="translate(0 16.08)"/><path class="g" d="M0,20.563c24.359,9.36,56.416-1.937,80.866-11.842C92.974,3.816,99.671,1.333,102.843,0l4.388,9.125c-3.7,1.394-11.975,4.5-24,8.8C59.131,26.548,24.459,35.212,0,22.548Z" transform="translate(0 34.819)"/><path class="h" d="M137.135.467c-.416-.915-3.128-1.127-19.424,5.6S71.947,27.015,44.693,39.76C17.249,52.592,6.969,52.9,0,52.438V53.97c3.581.956,20.621,1.888,35.3-2.776C50.8,46.267,83.578,31.959,93,27.912c9.2-3.95,17.816-8.31,23.4-10.645,5.681-4.159,10.522-7.684,14.565-10.517s6.573-4.685,6.491-5.6l-.146-.3Z" transform="translate(0 0)"/><path class="i" d="M2.169,0,2.4,2.6,0,3.619,2.546,4.2l.225,2.6L4.109,4.557l2.543.59L4.934,3.182,6.281.945,3.88,1.972Z" transform="translate(119.232 6.69)"/><path class="j" d="M2.222,0l.2,2.6L0,3.587,2.537,4.2l.187,2.6L4.1,4.585l2.535.626-1.69-1.99L6.319,1,3.9,2Z" transform="translate(129.712 2.632)"/><path class="k" d="M2.08,0l.3,2.594L0,3.671l2.559.517.289,2.595L4.131,4.508l2.557.527L4.922,3.113,6.213.844,3.839,1.929Z" transform="translate(108.443 11.399)"/><path class="l" d="M2.061,0l.154,2.376L0,3.248l2.307.587.145,2.376L3.724,4.2l2.3.6L4.507,2.964,5.787.957l-2.212.881Z" transform="translate(55.279 35.4)"/><path class="m" d="M2.08,0l.3,2.594L0,3.671l2.559.517.289,2.6L4.131,4.508l2.557.527L4.922,3.113,6.213.844,3.839,1.929Z" transform="translate(97.715 16.008)"/><path class="l" d="M1.962,0l.119,2.224L0,3.016l2.152.574.11,2.225L3.473,3.945l2.149.582L4.219,2.8,5.437.934l-2.078.8Z" transform="translate(44.723 40.062)"/><path class="n" d="M2.08,0l.3,2.594L0,3.671l2.559.517.289,2.595L4.131,4.508l2.557.527L4.922,3.113,6.213.844,3.839,1.929Z" transform="translate(86.937 20.687)"/><path class="o" d="M2.054,0l.265,2.521L0,3.542l2.479.527L2.734,6.59,4,4.4l2.477.537-1.7-1.883L6.058.86,3.743,1.89Z" transform="translate(76.339 25.639)"/><path class="l" d="M2,0l.252,2.445L0,3.431l2.4.516.243,2.446L3.878,4.267l2.4.525-1.64-1.83L5.879.841l-2.247.995Z" transform="translate(65.874 30.607)"/><path class="p" d="M36.564,0,41.94,11.529s-3.608,3.649-16.849,12.8c-6.342,4.382-12.435,8.881-15.871,11.81-3.738,3.186-4.26,4.454-4.31,5.119-.148-.319-2.637-5.659-3.382-7.266L0,30.673C.247,26.8,11.5,19.1,16.314,15.249,19.2,12.94,24.987,8.777,29.673,5.454A83.856,83.856,0,0,0,36.564,0Z" transform="translate(105.8 11.68)"/><path class="q" d="M35.782,0a3.321,3.321,0,0,1,.145.309l5.138,11.018c-.666,1.046-2.892,2.781-6.835,5.576-4.687,3.323-10.475,7.486-13.359,9.794C16.055,30.553,4.8,38.243,4.552,42.114c0,0-3.234-6.834-4.321-9.152s1.875-5.577,4.477-8.213S23.767,10.03,29.568,5.988,36.341,1.2,35.782,0Z" transform="translate(101.346 0.451)"/><path class="l" d="M3.592,1.739l1.34,2.873-.881-.055L3.061,7.23,2.51,4.463,0,4.317,2.167,2.764,1.606,0,3.5,1.808Z" transform="translate(136.129 4.27)"/><path class="r" d="M41.31,9.4a3.18,3.18,0,0,1-.821,4.433c-1.5,1.222-12.436,9.476-19,13.88S9.5,35.786,8.461,36.789s-3.69,3.457-2.853,5.1C5.1,40.945,2.07,34.373,0,29.933c.05-.665.571-1.934,4.31-5.12,3.437-2.929,9.53-7.428,15.872-11.81,4.084-2.822,7.253-5.121,9.681-6.951C35.305,1.95,36.445.883,36.934,0Z" transform="translate(110.609 22.786)"/><path class="j" d="M2.514,6.574.834,3.019l.079-.07L0,.28,2.109,1.828,4.051,0,3.406,2.776,5.521,4.316l-2.508.168Z" transform="translate(101.799 32.638)"/><path class="l" d="M1.606,0l.561,2.764L0,4.317l2.509.146.552,2.767.989-2.674,2.508.157-1.9-1.8,1-2.67L3.5,1.807Z" transform="translate(126.953 11.268)"/><path class="k" d="M1.606,0l.561,2.764L0,4.317l2.509.146.552,2.767.989-2.674,2.508.157-1.9-1.8,1-2.67L3.5,1.807Z" transform="translate(117.52 17.844)"/><path class="i" d="M1.259.076l.778,2.711L0,4.507l2.513-.053.77,2.715.775-2.744L6.57,4.383,4.536,2.74,5.32,0,3.288,1.728Z" transform="translate(108.493 25.001)"/></g></svg>